<svg width="121" height="40" viewBox="0 0 121 40" fill="none" xmlns="http://www.w3.org/2000/svg">
<rect width="121" height="40" rx="8" fill="black"/>
<path d="M37.8643 12V5.25684H39.6465C40.6816 5.25684 41.4857 5.53678 42.0586 6.09668C42.6348 6.65658 42.9229 7.49154 42.9229 8.60156C42.9229 9.71484 42.638 10.5596 42.0684 11.1357C41.4987 11.7119 40.7126 12 39.71 12H37.8643ZM39.0117 11.0723H39.5684C40.2617 11.0723 40.7972 10.8688 41.1748 10.4619C41.5524 10.055 41.7412 9.4349 41.7412 8.60156C41.7412 7.77148 41.5524 7.16113 41.1748 6.77051C40.7972 6.37988 40.2617 6.18457 39.5684 6.18457H39.0117V11.0723ZM46.2529 12.1221C45.833 12.1221 45.4408 12.0195 45.0762 11.8145C44.7148 11.6061 44.4219 11.305 44.1973 10.9111C43.9727 10.514 43.8604 10.0355 43.8604 9.47559C43.8604 8.91569 43.9727 8.4388 44.1973 8.04492C44.4219 7.64779 44.7148 7.34505 45.0762 7.13672C45.4408 6.92513 45.833 6.81934 46.2529 6.81934C46.6729 6.81934 47.0651 6.92513 47.4297 7.13672C47.7943 7.34505 48.0889 7.64779 48.3135 8.04492C48.5381 8.4388 48.6504 8.91569 48.6504 9.47559C48.6504 10.0355 48.5381 10.514 48.3135 10.9111C48.0889 11.305 47.7943 11.6061 47.4297 11.8145C47.0651 12.0195 46.6729 12.1221 46.2529 12.1221ZM46.2529 11.1992C46.6338 11.1992 46.9333 11.0413 47.1514 10.7256C47.3727 10.4098 47.4834 9.99316 47.4834 9.47559C47.4834 8.95801 47.3727 8.54134 47.1514 8.22559C46.9333 7.90983 46.6338 7.75195 46.2529 7.75195C45.8721 7.75195 45.5726 7.90983 45.3545 8.22559C45.1396 8.54134 45.0322 8.95801 45.0322 9.47559C45.0322 9.99316 45.1396 10.4098 45.3545 10.7256C45.5726 11.0413 45.8721 11.1992 46.2529 11.1992ZM50.6816 12L49.334 6.94629H50.4766L51.1113 9.60742C51.1634 9.85482 51.209 10.0973 51.248 10.335C51.2904 10.5726 51.3343 10.8151 51.3799 11.0625H51.4238C51.4727 10.8151 51.5231 10.571 51.5752 10.3301C51.6273 10.0859 51.6859 9.84505 51.751 9.60742L52.4248 6.94629H53.4697L54.1533 9.60742C54.2152 9.85482 54.2721 10.0973 54.3242 10.335C54.3796 10.5726 54.4365 10.8151 54.4951 11.0625H54.5342C54.583 10.8151 54.6286 10.5726 54.6709 10.335C54.7165 10.0973 54.7653 9.85482 54.8174 9.60742L55.4375 6.94629H56.502L55.208 12H53.8555L53.25 9.58789C53.1914 9.35352 53.1377 9.11751 53.0889 8.87988C53.04 8.639 52.988 8.38672 52.9326 8.12305H52.8936C52.8447 8.38672 52.7959 8.639 52.7471 8.87988C52.6982 9.12077 52.6429 9.3584 52.5811 9.59277L51.9951 12H50.6816ZM57.5078 12V6.94629H58.4453L58.5381 7.62988H58.5625C58.7936 7.40853 59.0426 7.2181 59.3096 7.05859C59.5798 6.89909 59.8874 6.81934 60.2324 6.81934C60.7695 6.81934 61.1618 6.99512 61.4092 7.34668C61.6566 7.69499 61.7803 8.18815 61.7803 8.82617V12H60.6475V8.96777C60.6475 8.54785 60.5824 8.24837 60.4521 8.06934C60.3252 7.88704 60.1185 7.7959 59.832 7.7959C59.6074 7.7959 59.4072 7.85286 59.2314 7.9668C59.0589 8.08073 58.8652 8.24349 58.6504 8.45508V12H57.5078ZM64.3779 12.1221C63.9743 12.1221 63.6862 12 63.5137 11.7559C63.3444 11.5085 63.2598 11.1699 63.2598 10.7402V4.71484H64.4023V10.7988C64.4023 10.9518 64.4284 11.0576 64.4805 11.1162C64.5358 11.1715 64.596 11.1992 64.6611 11.1992C64.6872 11.1992 64.7132 11.1992 64.7393 11.1992C64.7653 11.196 64.7995 11.1895 64.8418 11.1797L64.9834 12.0195C64.9118 12.0488 64.8255 12.0732 64.7246 12.0928C64.6237 12.1123 64.5081 12.1221 64.3779 12.1221ZM68.0791 12.1221C67.6592 12.1221 67.2669 12.0195 66.9023 11.8145C66.541 11.6061 66.248 11.305 66.0234 10.9111C65.7988 10.514 65.6865 10.0355 65.6865 9.47559C65.6865 8.91569 65.7988 8.4388 66.0234 8.04492C66.248 7.64779 66.541 7.34505 66.9023 7.13672C67.2669 6.92513 67.6592 6.81934 68.0791 6.81934C68.499 6.81934 68.8913 6.92513 69.2559 7.13672C69.6204 7.34505 69.915 7.64779 70.1396 8.04492C70.3643 8.4388 70.4766 8.91569 70.4766 9.47559C70.4766 10.0355 70.3643 10.514 70.1396 10.9111C69.915 11.305 69.6204 11.6061 69.2559 11.8145C68.8913 12.0195 68.499 12.1221 68.0791 12.1221ZM68.0791 11.1992C68.46 11.1992 68.7594 11.0413 68.9775 10.7256C69.1989 10.4098 69.3096 9.99316 69.3096 9.47559C69.3096 8.95801 69.1989 8.54134 68.9775 8.22559C68.7594 7.90983 68.46 7.75195 68.0791 7.75195C67.6982 7.75195 67.3988 7.90983 67.1807 8.22559C66.9658 8.54134 66.8584 8.95801 66.8584 9.47559C66.8584 9.99316 66.9658 10.4098 67.1807 10.7256C67.3988 11.0413 67.6982 11.1992 68.0791 11.1992ZM72.8984 12.1221C72.459 12.1221 72.0993 11.9886 71.8193 11.7217C71.5426 11.4515 71.4043 11.0951 71.4043 10.6523C71.4043 10.1087 71.6419 9.6888 72.1172 9.39258C72.5924 9.0931 73.3525 8.88639 74.3975 8.77246C74.391 8.49577 74.321 8.25488 74.1875 8.0498C74.054 7.84147 73.8115 7.7373 73.46 7.7373C73.2028 7.7373 72.9538 7.78613 72.7129 7.88379C72.472 7.97819 72.2425 8.09212 72.0244 8.22559L71.6045 7.4834C71.8747 7.30762 72.1855 7.15299 72.5371 7.01953C72.8887 6.88607 73.2663 6.81934 73.6699 6.81934C74.2982 6.81934 74.7653 7.00814 75.0713 7.38574C75.3805 7.76335 75.5352 8.30046 75.5352 8.99707V12H74.5977L74.5146 11.4336H74.4805C74.2526 11.6289 74.0068 11.7933 73.7432 11.9268C73.4795 12.057 73.1979 12.1221 72.8984 12.1221ZM73.2598 11.2285C73.4681 11.2285 73.6602 11.1813 73.8359 11.0869C74.015 10.9893 74.2021 10.8493 74.3975 10.667V9.48535C73.6846 9.57975 73.1898 9.71647 72.9131 9.89551C72.6396 10.0745 72.5029 10.2959 72.5029 10.5596C72.5029 10.7939 72.5729 10.9648 72.7129 11.0723C72.8561 11.1764 73.0384 11.2285 73.2598 11.2285ZM78.7432 12.1221C78.1149 12.1221 77.612 11.891 77.2344 11.4287C76.86 10.9632 76.6729 10.3122 76.6729 9.47559C76.6729 8.92871 76.7738 8.45671 76.9756 8.05957C77.1774 7.66243 77.4411 7.35645 77.7666 7.1416C78.0954 6.92676 78.4453 6.81934 78.8164 6.81934C79.0996 6.81934 79.3438 6.86979 79.5488 6.9707C79.7539 7.07161 79.9557 7.20833 80.1543 7.38086L80.1152 6.56543V4.71484H81.2529V12H80.3154L80.2324 11.4434H80.1982C80.0062 11.6354 79.7848 11.7965 79.5342 11.9268C79.2835 12.057 79.0199 12.1221 78.7432 12.1221ZM79.0264 11.1846C79.4137 11.1846 79.7767 10.9893 80.1152 10.5986V8.20117C79.9329 8.04167 79.7539 7.92773 79.5781 7.85938C79.4023 7.79102 79.2266 7.75684 79.0508 7.75684C78.7188 7.75684 78.4323 7.9082 78.1914 8.21094C77.9538 8.51367 77.835 8.93359 77.835 9.4707C77.835 10.0273 77.9391 10.4521 78.1475 10.7451C78.3558 11.0381 78.6488 11.1846 79.0264 11.1846ZM88.0596 12.1221C87.6396 12.1221 87.2474 12.0195 86.8828 11.8145C86.5215 11.6061 86.2285 11.305 86.0039 10.9111C85.7793 10.514 85.667 10.0355 85.667 9.47559C85.667 8.91569 85.7793 8.4388 86.0039 8.04492C86.2285 7.64779 86.5215 7.34505 86.8828 7.13672C87.2474 6.92513 87.6396 6.81934 88.0596 6.81934C88.4795 6.81934 88.8717 6.92513 89.2363 7.13672C89.6009 7.34505 89.8955 7.64779 90.1201 8.04492C90.3447 8.4388 90.457 8.91569 90.457 9.47559C90.457 10.0355 90.3447 10.514 90.1201 10.9111C89.8955 11.305 89.6009 11.6061 89.2363 11.8145C88.8717 12.0195 88.4795 12.1221 88.0596 12.1221ZM88.0596 11.1992C88.4404 11.1992 88.7399 11.0413 88.958 10.7256C89.1794 10.4098 89.29 9.99316 89.29 9.47559C89.29 8.95801 89.1794 8.54134 88.958 8.22559C88.7399 7.90983 88.4404 7.75195 88.0596 7.75195C87.6787 7.75195 87.3792 7.90983 87.1611 8.22559C86.9463 8.54134 86.8389 8.95801 86.8389 9.47559C86.8389 9.99316 86.9463 10.4098 87.1611 10.7256C87.3792 11.0413 87.6787 11.1992 88.0596 11.1992ZM91.6582 12V6.94629H92.5957L92.6885 7.62988H92.7129C92.944 7.40853 93.193 7.2181 93.46 7.05859C93.7301 6.89909 94.0378 6.81934 94.3828 6.81934C94.9199 6.81934 95.3122 6.99512 95.5596 7.34668C95.807 7.69499 95.9307 8.18815 95.9307 8.82617V12H94.7979V8.96777C94.7979 8.54785 94.7327 8.24837 94.6025 8.06934C94.4756 7.88704 94.2689 7.7959 93.9824 7.7959C93.7578 7.7959 93.5576 7.85286 93.3818 7.9668C93.2093 8.08073 93.0156 8.24349 92.8008 8.45508V12H91.6582ZM102.386 12.1221C101.806 12.1221 101.398 11.9561 101.16 11.624C100.926 11.292 100.809 10.8558 100.809 10.3154V7.85938H100.086V6.99512L100.872 6.94629L101.004 5.35449H101.946V6.94629H103.25V7.85938H101.946V10.3154C101.946 10.9176 102.189 11.2188 102.674 11.2188C102.758 11.2188 102.845 11.2106 102.933 11.1943C103.024 11.1781 103.113 11.152 103.201 11.1162L103.416 11.917C103.279 11.9691 103.123 12.0163 102.947 12.0586C102.771 12.1009 102.584 12.1221 102.386 12.1221ZM104.324 12V4.71484H105.467V6.60938L105.418 7.5957C105.636 7.39062 105.875 7.20996 106.136 7.05371C106.399 6.89746 106.704 6.81934 107.049 6.81934C107.586 6.81934 107.978 6.99512 108.226 7.34668C108.473 7.69499 108.597 8.18815 108.597 8.82617V12H107.464V8.96777C107.464 8.54785 107.399 8.24837 107.269 8.06934C107.142 7.88704 106.935 7.7959 106.648 7.7959C106.424 7.7959 106.224 7.85286 106.048 7.9668C105.875 8.08073 105.682 8.24349 105.467 8.45508V12H104.324ZM112.2 12.1221C111.738 12.1221 111.32 12.0179 110.945 11.8096C110.571 11.598 110.273 11.2952 110.052 10.9014C109.83 10.5075 109.72 10.0322 109.72 9.47559C109.72 8.92871 109.83 8.45671 110.052 8.05957C110.276 7.66243 110.566 7.35645 110.921 7.1416C111.276 6.92676 111.65 6.81934 112.044 6.81934C112.718 6.81934 113.232 7.04232 113.587 7.48828C113.942 7.93099 114.119 8.50879 114.119 9.22168C114.119 9.3291 114.114 9.43327 114.104 9.53418C114.095 9.63509 114.083 9.7181 114.07 9.7832H110.833C110.879 10.2422 111.038 10.6003 111.312 10.8574C111.585 11.1146 111.93 11.2432 112.347 11.2432C112.571 11.2432 112.781 11.2122 112.977 11.1504C113.175 11.0885 113.367 11.0007 113.553 10.8867L113.929 11.5801C113.688 11.7493 113.421 11.8828 113.128 11.9805C112.835 12.0749 112.526 12.1221 112.2 12.1221ZM110.818 9.00684H113.133C113.133 8.59668 113.043 8.27767 112.864 8.0498C112.685 7.81868 112.42 7.70312 112.068 7.70312C111.762 7.70312 111.491 7.81543 111.253 8.04004C111.015 8.26465 110.87 8.58691 110.818 9.00684Z" fill="white"/>
<path d="M49.2031 32H47.2578L46.3828 29.0234H42.7266L41.8516 32H39.9766L43.5156 21.2109H45.6562L49.2031 32ZM43.5469 26.2109L43.1406 27.5859H45.9766L45.5703 26.2109C45.3984 25.638 45.2318 25.0521 45.0703 24.4531C44.9089 23.849 44.7474 23.2474 44.5859 22.6484H44.5156C44.3698 23.2526 44.2135 23.8542 44.0469 24.4531C43.8802 25.0521 43.7135 25.638 43.5469 26.2109ZM50.3906 35.2266V23.9141H51.8906L52.0391 24.7812H52.0781C52.4219 24.4896 52.8047 24.2396 53.2266 24.0312C53.6536 23.8177 54.0911 23.7109 54.5391 23.7109C55.5495 23.7109 56.3333 24.0859 56.8906 24.8359C57.4531 25.5859 57.7344 26.5833 57.7344 27.8281C57.7344 28.75 57.5703 29.5365 57.2422 30.1875C56.9141 30.8385 56.4844 31.3359 55.9531 31.6797C55.4271 32.0234 54.8646 32.1953 54.2656 32.1953C53.9062 32.1953 53.5495 32.1198 53.1953 31.9688C52.8411 31.8125 52.4974 31.5911 52.1641 31.3047L52.2188 32.6562V35.2266H50.3906ZM53.8906 30.6953C54.4479 30.6953 54.9141 30.4531 55.2891 29.9688C55.6693 29.4844 55.8594 28.7786 55.8594 27.8516C55.8594 27.0339 55.7135 26.3906 55.4219 25.9219C55.1354 25.4479 54.6745 25.2109 54.0391 25.2109C53.4714 25.2109 52.8646 25.5286 52.2188 26.1641V30C52.5208 30.2552 52.8125 30.4349 53.0938 30.5391C53.3802 30.6432 53.6458 30.6953 53.8906 30.6953ZM59.6719 35.2266V23.9141H61.1719L61.3203 24.7812H61.3594C61.7031 24.4896 62.0859 24.2396 62.5078 24.0312C62.9349 23.8177 63.3724 23.7109 63.8203 23.7109C64.8307 23.7109 65.6146 24.0859 66.1719 24.8359C66.7344 25.5859 67.0156 26.5833 67.0156 27.8281C67.0156 28.75 66.8516 29.5365 66.5234 30.1875C66.1953 30.8385 65.7656 31.3359 65.2344 31.6797C64.7083 32.0234 64.1458 32.1953 63.5469 32.1953C63.1875 32.1953 62.8307 32.1198 62.4766 31.9688C62.1224 31.8125 61.7786 31.5911 61.4453 31.3047L61.5 32.6562V35.2266H59.6719ZM63.1719 30.6953C63.7292 30.6953 64.1953 30.4531 64.5703 29.9688C64.9505 29.4844 65.1406 28.7786 65.1406 27.8516C65.1406 27.0339 64.9948 26.3906 64.7031 25.9219C64.4167 25.4479 63.9557 25.2109 63.3203 25.2109C62.7526 25.2109 62.1458 25.5286 61.5 26.1641V30C61.8021 30.2552 62.0938 30.4349 62.375 30.5391C62.6615 30.6432 62.9271 30.6953 63.1719 30.6953ZM77.3984 32.1953C76.6484 32.1953 75.9401 32.0599 75.2734 31.7891C74.612 31.513 74.0312 31.1198 73.5312 30.6094L74.5312 29.3984C74.9115 29.7786 75.3594 30.0755 75.875 30.2891C76.3906 30.4974 76.9089 30.6016 77.4297 30.6016C78.0547 30.6016 78.5339 30.4714 78.8672 30.2109C79.2057 29.9453 79.375 29.5938 79.375 29.1562C79.375 28.849 79.3021 28.6042 79.1562 28.4219C79.0104 28.2344 78.8099 28.0755 78.5547 27.9453C78.2995 27.8099 78.0078 27.6693 77.6797 27.5234L76.1953 26.8828C75.8411 26.7318 75.4974 26.5365 75.1641 26.2969C74.8307 26.0521 74.5547 25.7448 74.3359 25.375C74.1172 25 74.0078 24.5495 74.0078 24.0234C74.0078 23.4557 74.1615 22.9453 74.4688 22.4922C74.7812 22.0339 75.2083 21.6719 75.75 21.4062C76.2917 21.1406 76.9089 21.0078 77.6016 21.0078C78.2526 21.0078 78.862 21.1302 79.4297 21.375C80.0026 21.6146 80.4948 21.9323 80.9062 22.3281L79.9219 23.5391C79.5781 23.2526 79.2083 23.026 78.8125 22.8594C78.4219 22.6927 78.0182 22.6094 77.6016 22.6094C77.0807 22.6094 76.6615 22.7266 76.3438 22.9609C76.0312 23.1953 75.875 23.5156 75.875 23.9219C75.875 24.2135 75.9557 24.4531 76.1172 24.6406C76.2839 24.8281 76.4974 24.987 76.7578 25.1172C77.0182 25.2474 77.2995 25.3724 77.6016 25.4922L79.0547 26.1016C79.7005 26.3724 80.2266 26.7292 80.6328 27.1719C81.0443 27.6146 81.25 28.2292 81.25 29.0156C81.25 29.599 81.0964 30.1328 80.7891 30.6172C80.4818 31.0964 80.0391 31.4792 79.4609 31.7656C78.888 32.0521 78.2005 32.1953 77.3984 32.1953ZM85.8828 32.1953C84.9557 32.1953 84.3021 31.9297 83.9219 31.3984C83.5469 30.8672 83.3594 30.1693 83.3594 29.3047V25.375H82.2031V23.9922L83.4609 23.9141L83.6719 21.3672H85.1797V23.9141H87.2656V25.375H85.1797V29.3047C85.1797 30.2682 85.5677 30.75 86.3438 30.75C86.4792 30.75 86.6172 30.737 86.7578 30.7109C86.9036 30.6849 87.0469 30.6432 87.1875 30.5859L87.5312 31.8672C87.3125 31.9505 87.0625 32.026 86.7812 32.0938C86.5 32.1615 86.2005 32.1953 85.8828 32.1953ZM92.2734 32.1953C91.6016 32.1953 90.974 32.0312 90.3906 31.7031C89.8125 31.3698 89.3438 30.888 88.9844 30.2578C88.625 29.6224 88.4453 28.8568 88.4453 27.9609C88.4453 27.0651 88.625 26.3021 88.9844 25.6719C89.3438 25.0365 89.8125 24.5521 90.3906 24.2188C90.974 23.8802 91.6016 23.7109 92.2734 23.7109C92.9453 23.7109 93.5729 23.8802 94.1562 24.2188C94.7396 24.5521 95.2109 25.0365 95.5703 25.6719C95.9297 26.3021 96.1094 27.0651 96.1094 27.9609C96.1094 28.8568 95.9297 29.6224 95.5703 30.2578C95.2109 30.888 94.7396 31.3698 94.1562 31.7031C93.5729 32.0312 92.9453 32.1953 92.2734 32.1953ZM92.2734 30.7188C92.8828 30.7188 93.362 30.4661 93.7109 29.9609C94.0651 29.4557 94.2422 28.7891 94.2422 27.9609C94.2422 27.1328 94.0651 26.4661 93.7109 25.9609C93.362 25.4557 92.8828 25.2031 92.2734 25.2031C91.6641 25.2031 91.1849 25.4557 90.8359 25.9609C90.4922 26.4661 90.3203 27.1328 90.3203 27.9609C90.3203 28.7891 90.4922 29.4557 90.8359 29.9609C91.1849 30.4661 91.6641 30.7188 92.2734 30.7188ZM98.0312 32V23.9141H99.5312L99.6797 25.3516H99.7188C100.01 24.8307 100.357 24.4271 100.758 24.1406C101.164 23.8542 101.586 23.7109 102.023 23.7109C102.221 23.7109 102.391 23.7266 102.531 23.7578C102.672 23.7839 102.805 23.8229 102.93 23.875L102.555 25.4297C102.43 25.3984 102.312 25.375 102.203 25.3594C102.094 25.3385 101.953 25.3281 101.781 25.3281C101.458 25.3281 101.117 25.4557 100.758 25.7109C100.404 25.9661 100.104 26.4062 99.8594 27.0312V32H98.0312ZM107.555 32.1953C106.815 32.1953 106.146 32.0286 105.547 31.6953C104.948 31.3568 104.471 30.8724 104.117 30.2422C103.763 29.612 103.586 28.8516 103.586 27.9609C103.586 27.0859 103.763 26.3307 104.117 25.6953C104.477 25.0599 104.94 24.5703 105.508 24.2266C106.076 23.8828 106.674 23.7109 107.305 23.7109C108.383 23.7109 109.206 24.0677 109.773 24.7812C110.341 25.4896 110.625 26.4141 110.625 27.5547C110.625 27.7266 110.617 27.8932 110.602 28.0547C110.586 28.2161 110.568 28.349 110.547 28.4531H105.367C105.44 29.1875 105.695 29.7604 106.133 30.1719C106.57 30.5833 107.122 30.7891 107.789 30.7891C108.148 30.7891 108.484 30.7396 108.797 30.6406C109.115 30.5417 109.422 30.401 109.719 30.2188L110.32 31.3281C109.935 31.599 109.508 31.8125 109.039 31.9688C108.57 32.1198 108.076 32.1953 107.555 32.1953ZM105.344 27.2109H109.047C109.047 26.5547 108.904 26.0443 108.617 25.6797C108.331 25.3099 107.906 25.125 107.344 25.125C106.854 25.125 106.419 25.3047 106.039 25.6641C105.659 26.0234 105.427 26.5391 105.344 27.2109Z" fill="white"/>
<path d="M18.6428 14.7741C17.6847 14.7741 16.2015 13.6847 14.6396 13.7241C12.579 13.7503 10.689 14.9184 9.62588 16.7691C7.48651 20.4835 9.07463 25.9697 11.1615 28.9885C12.1853 30.4585 13.3928 32.1122 14.994 32.0597C16.5296 31.9941 17.1072 31.0622 18.9709 31.0622C20.8215 31.0622 21.3465 32.0597 22.974 32.0203C24.6278 31.9941 25.6778 30.5241 26.6884 29.041C27.8565 27.3347 28.3422 25.681 28.3684 25.5891C28.329 25.576 25.1528 24.3553 25.1134 20.6803C25.0872 17.6091 27.6203 16.1391 27.7384 16.0734C26.2947 13.9603 24.0765 13.7241 23.3022 13.6716C21.2809 13.5141 19.5878 14.7741 18.6428 14.7741ZM22.0553 11.6766C22.9084 10.6528 23.4728 9.22219 23.3153 7.80469C22.0947 7.85719 20.6247 8.61844 19.7453 9.64219C18.9578 10.5478 18.2753 12.0047 18.459 13.3959C19.8109 13.5009 21.2022 12.7003 22.0553 11.6766Z" fill="white"/>
</svg>
