<svg width="24" height="24" viewBox="0 0 24 24" fill="none" xmlns="http://www.w3.org/2000/svg">
<g clip-path="url(#clip0_242_215)">
<path d="M23.0353 12.2502C23.0353 11.3244 22.9602 10.6488 22.7976 9.94812H12.2253V14.1269H18.431C18.306 15.1654 17.6303 16.7294 16.1289 17.7803L16.1079 17.9202L19.4506 20.5098L19.6822 20.5329C21.8092 18.5686 23.0353 15.6784 23.0353 12.2502Z" fill="#4285F4"/>
<path d="M12.2252 23.2604C15.2655 23.2604 17.8178 22.2594 19.6821 20.5329L16.1288 17.7803C15.1779 18.4434 13.9017 18.9063 12.2252 18.9063C9.24749 18.9063 6.72018 16.9421 5.81925 14.2271L5.68721 14.2383L2.21135 16.9283L2.16589 17.0546C4.01758 20.733 7.82111 23.2604 12.2252 23.2604Z" fill="#34A853"/>
<path d="M5.8193 14.2271C5.58156 13.5264 5.44399 12.7757 5.44399 12C5.44399 11.2242 5.58158 10.4736 5.80679 9.77293L5.80049 9.62372L2.28107 6.8905L2.16593 6.94527C1.40275 8.47171 0.964844 10.1858 0.964844 12C0.964844 13.8142 1.40275 15.5282 2.16593 17.0546L5.8193 14.2271Z" fill="#FBBC05"/>
<path d="M12.2252 5.09362C14.3396 5.09362 15.7659 6.00696 16.5792 6.77022L19.7572 3.66733C17.8054 1.85316 15.2655 0.739624 12.2252 0.739624C7.82111 0.739624 4.01758 3.26694 2.16589 6.94531L5.80674 9.77297C6.72018 7.05796 9.24749 5.09362 12.2252 5.09362Z" fill="#EB4335"/>
</g>
<defs>
<clipPath id="clip0_242_215">
<rect width="24" height="24" fill="white"/>
</clipPath>
</defs>
</svg>
