<svg width="183" height="48" viewBox="0 0 183 48" fill="none" xmlns="http://www.w3.org/2000/svg">
<rect x="0.5" y="0.5" width="182" height="47" rx="23.5" fill="white"/>
<rect x="0.5" y="0.5" width="182" height="47" rx="23.5" stroke="#898989"/>
<g clip-path="url(#clip0_476_352)">
<path fill-rule="evenodd" clip-rule="evenodd" d="M151.238 16.824H151.582C151.756 16.824 151.944 16.8622 151.944 17.0683C151.944 17.3238 151.753 17.3398 151.538 17.3398H151.237V17.5536H151.527L151.966 18.2748H152.248L151.775 17.5425C152.019 17.5119 152.206 17.3828 152.206 17.085C152.206 16.7567 152.011 16.6116 151.619 16.6116H150.984V18.2748H151.236V16.824H151.238Z" fill="black"/>
<path fill-rule="evenodd" clip-rule="evenodd" d="M116.355 16.2264H118.862V29.0686H129.729L128.133 31.5774H116.355V16.2264ZM96.6725 31.5774L87.4011 16.9483C86.8311 15.9987 85.3116 15.9987 84.6653 16.9865L75.4702 31.5774H78.5101L81.284 27.1694H87.2115L88.7701 24.6613H82.8424L86.0724 19.6084L93.6338 31.5774H96.6725ZM102.314 16.2312C98.0781 16.2312 95.2895 19.6653 95.2895 23.9018C95.2895 28.1377 98.0786 31.5732 102.314 31.5732L112.614 31.5607L114.226 29.0741H102.39C99.5348 29.0741 97.8639 26.7584 97.8639 23.9018C97.8639 21.0453 99.5336 18.7296 102.39 18.7296H112.933L114.49 16.2236L102.314 16.2312ZM38.0251 18.7296H48.8917C51.7482 18.7296 53.4184 21.0453 53.4184 23.9018C53.4184 26.7584 51.7489 29.0741 48.8917 29.0741H38.0251C35.1685 29.0741 33.499 26.7584 33.499 23.9018C33.499 21.0453 35.1685 18.7296 38.0251 18.7296ZM38.0251 16.2312C33.7885 16.2312 31 19.6653 31 23.9018C31 28.1377 33.7885 31.5732 38.0251 31.5732H48.8917C53.1282 31.5732 55.9167 28.1377 55.9167 23.9018C55.9167 19.6653 53.1282 16.2312 48.8917 16.2312H38.0251ZM132.408 25.1181C132.816 27.388 134.378 29.0741 136.816 29.0741H148.652L147.039 31.5607L136.74 31.5732C132.503 31.5732 129.716 28.1377 129.716 23.9018C129.716 19.6653 132.503 16.2312 136.74 16.2312L148.916 16.2243L147.36 18.7303H136.817C134.413 18.7303 132.844 20.3879 132.408 22.6107H147.285L145.689 25.1187H132.408V25.1181ZM70.0939 25.3402C71.288 25.3193 72.4262 24.8303 73.2633 23.9785C74.1005 23.1266 74.5695 21.98 74.5695 20.7857C74.5695 19.5914 74.1005 18.4448 73.2633 17.5929C72.4262 16.7411 71.288 16.2521 70.0939 16.2312L57.3079 16.2257V31.5767H60.1199V18.7303H70.0939C70.639 18.7303 71.1618 18.9468 71.5473 19.3323C71.9327 19.7178 72.1493 20.2406 72.1493 20.7857C72.1493 21.3308 71.9327 21.8536 71.5473 22.2392C71.1618 22.6246 70.639 22.8412 70.0939 22.8412H62.0956L71.1185 31.5593H74.7483L68.289 25.3458L70.0939 25.3402ZM151.542 16.2402C152.194 16.2402 152.71 16.7553 152.71 17.4384C152.71 18.1326 152.195 18.6435 151.542 18.6435C150.882 18.6435 150.368 18.1326 150.368 17.4384C150.368 16.7553 150.882 16.2402 151.542 16.2402V16.0001C150.749 16.0001 150.078 16.6102 150.078 17.4377C150.078 18.2735 150.749 18.8837 151.542 18.8837C152.329 18.8837 153 18.2735 153 17.4377C153 16.6102 152.329 16.0001 151.542 16.0001V16.2402Z" fill="black"/>
</g>
<defs>
<clipPath id="clip0_476_352">
<rect width="122" height="15.7419" fill="white" transform="translate(31 16.0001)"/>
</clipPath>
</defs>
</svg>
