<svg width="183" height="48" viewBox="0 0 183 48" fill="none" xmlns="http://www.w3.org/2000/svg">
<rect x="0.5" y="0.5" width="182" height="47" rx="23.5" fill="white"/>
<rect x="0.5" y="0.5" width="182" height="47" rx="23.5" stroke="#898989"/>
<path d="M76.3439 14.643H69.7812C69.3321 14.643 68.9502 14.9693 68.8801 15.4126L66.2259 32.241C66.1731 32.5731 66.4303 32.8724 66.7671 32.8724H69.9002C70.3493 32.8724 70.7312 32.5462 70.8012 32.1019L71.5171 27.563C71.5862 27.1188 71.969 26.7924 72.4172 26.7924H74.4947C78.8177 26.7924 81.3126 24.7005 81.9642 20.5551C82.2579 18.7414 81.9767 17.3164 81.1275 16.3185C80.1947 15.2226 78.5404 14.643 76.3439 14.643ZM77.101 20.7893C76.7421 23.1441 74.9429 23.1441 73.2031 23.1441H72.2128L72.9075 18.7463C72.9488 18.4804 73.1791 18.2847 73.4478 18.2847H73.9017C75.0868 18.2847 76.2047 18.2847 76.7824 18.9603C77.1269 19.3633 77.2325 19.9621 77.101 20.7893Z" fill="#253B80"/>
<path d="M95.961 20.7134H92.8183C92.5506 20.7134 92.3193 20.9092 92.2781 21.175L92.1389 22.0539L91.9192 21.7353C91.2388 20.7479 89.7217 20.4178 88.2075 20.4178C84.7347 20.4178 81.7686 23.0481 81.1909 26.7378C80.8906 28.5783 81.3176 30.3382 82.3616 31.5655C83.3193 32.6939 84.6896 33.1642 86.3199 33.1642C89.1181 33.1642 90.6698 31.3649 90.6698 31.3649L90.5297 32.2382C90.4769 32.5721 90.7341 32.8715 91.069 32.8715H93.8998C94.3498 32.8715 94.7298 32.5453 94.8008 32.1009L96.4993 21.3448C96.5531 21.0138 96.2968 20.7134 95.961 20.7134ZM91.5804 26.8298C91.2772 28.6253 89.8522 29.8305 88.0348 29.8305C87.1222 29.8305 86.3928 29.5378 85.9246 28.9832C85.4602 28.4324 85.2836 27.6484 85.4313 26.7752C85.7144 24.9951 87.1634 23.7505 88.9531 23.7505C89.8455 23.7505 90.5709 24.047 91.0488 24.6065C91.5277 25.1717 91.7177 25.9605 91.5804 26.8298Z" fill="#253B80"/>
<path d="M112.698 20.7133H109.54C109.239 20.7133 108.956 20.8631 108.785 21.1135L104.429 27.5293L102.583 21.364C102.467 20.9782 102.111 20.7133 101.708 20.7133H98.6047C98.2275 20.7133 97.9656 21.0818 98.0855 21.4369L101.564 31.6451L98.2938 36.2617C98.0366 36.6254 98.2957 37.1253 98.7399 37.1253H101.894C102.194 37.1253 102.474 36.9795 102.644 36.7338L113.147 21.5722C113.399 21.2095 113.141 20.7133 112.698 20.7133Z" fill="#253B80"/>
<path d="M123.154 14.643H116.59C116.143 14.643 115.76 14.9693 115.69 15.4126L113.036 32.241C112.983 32.5731 113.24 32.8724 113.575 32.8724H116.943C117.256 32.8724 117.524 32.6441 117.573 32.3332L118.326 27.563C118.395 27.1188 118.778 26.7924 119.227 26.7924H121.303C125.627 26.7924 128.121 24.7005 128.773 20.5551C129.068 18.7414 128.785 17.3164 127.936 16.3185C127.004 15.2226 125.351 14.643 123.154 14.643ZM123.911 20.7893C123.553 23.1441 121.754 23.1441 120.013 23.1441H119.024L119.719 18.7463C119.761 18.4804 119.989 18.2847 120.259 18.2847H120.713C121.897 18.2847 123.016 18.2847 123.593 18.9603C123.938 19.3633 124.043 19.9621 123.911 20.7893Z" fill="#179BD7"/>
<path d="M142.77 20.7134H139.629C139.36 20.7134 139.13 20.9092 139.09 21.175L138.951 22.0539L138.73 21.7353C138.05 20.7479 136.533 20.4178 135.019 20.4178C131.547 20.4178 128.582 23.0481 128.004 26.7378C127.704 28.5783 128.129 30.3382 129.173 31.5655C130.133 32.6939 131.502 33.1642 133.132 33.1642C135.93 33.1642 137.482 31.3649 137.482 31.3649L137.342 32.2382C137.289 32.5721 137.546 32.8715 137.883 32.8715H140.713C141.161 32.8715 141.543 32.5453 141.613 32.1009L143.313 21.3448C143.364 21.0138 143.107 20.7134 142.77 20.7134ZM138.389 26.8298C138.088 28.6253 136.662 29.8305 134.844 29.8305C133.933 29.8305 133.202 29.5378 132.733 28.9832C132.269 28.4324 132.094 27.6484 132.24 26.7752C132.525 24.9951 133.973 23.7505 135.763 23.7505C136.654 23.7505 137.38 24.047 137.858 24.6065C138.338 25.1717 138.528 25.9605 138.389 26.8298Z" fill="#179BD7"/>
<path d="M146.475 15.1045L143.782 32.241C143.728 32.573 143.986 32.8724 144.321 32.8724H147.028C147.478 32.8724 147.861 32.5462 147.93 32.1019L150.586 15.2744C150.638 14.9424 150.382 14.642 150.047 14.642H147.014C146.747 14.6429 146.516 14.8387 146.475 15.1045Z" fill="#179BD7"/>
<path d="M38.9724 36.1428L39.4742 32.955L38.3563 32.9291H33.0181L36.7279 9.40653C36.7394 9.33551 36.7768 9.2693 36.8315 9.22228C36.8862 9.17526 36.9562 9.14935 37.0292 9.14935H46.0302C49.0183 9.14935 51.0805 9.77117 52.1572 10.9985C52.6619 11.5743 52.9834 12.1759 53.1388 12.838C53.302 13.5328 53.3049 14.3629 53.1456 15.3752L53.1341 15.4491V16.0978L53.6388 16.3838C54.0639 16.6093 54.4017 16.8674 54.6607 17.1629C55.0926 17.6552 55.3718 18.2809 55.4899 19.0226C55.6117 19.7855 55.5714 20.6933 55.3718 21.721C55.1416 22.9033 54.7692 23.9329 54.2664 24.7754C53.8038 25.5517 53.2147 26.1956 52.5152 26.6946C51.8472 27.1687 51.0537 27.5285 50.1564 27.7588C49.2871 27.9853 48.2958 28.0994 47.2086 28.0994H46.5081C46.0072 28.0994 45.5207 28.2799 45.1388 28.6033C44.7558 28.9334 44.5025 29.3844 44.4248 29.8776L44.372 30.1645L43.4853 35.7829L43.445 35.9893C43.4345 36.0545 43.4163 36.0871 43.3894 36.1092C43.3654 36.1294 43.3308 36.1428 43.2972 36.1428H38.9724Z" fill="#253B80"/>
<path d="M54.1167 15.5238C54.0898 15.6956 54.0591 15.8712 54.0246 16.0516C52.8376 22.146 48.7766 24.2513 43.5899 24.2513H40.9491C40.3148 24.2513 39.7803 24.712 39.6815 25.3376L38.3294 33.9126L37.9466 36.3432C37.8823 36.7539 38.1989 37.1243 38.6135 37.1243H43.2973C43.8519 37.1243 44.3231 36.7213 44.4104 36.1743L44.4564 35.9363L45.3383 30.34L45.3949 30.0329C45.4813 29.4841 45.9534 29.081 46.5081 29.081H47.2086C51.7465 29.081 55.2989 27.2386 56.3372 21.9071C56.7709 19.6798 56.5464 17.8201 55.3988 16.5122C55.0513 16.1178 54.6205 15.7906 54.1167 15.5238Z" fill="#179BD7"/>
<path d="M52.8749 15.0287C52.6935 14.976 52.5064 14.928 52.3145 14.8848C52.1216 14.8426 51.9239 14.8051 51.7205 14.7726C51.0085 14.6574 50.2283 14.6027 49.3925 14.6027H42.3376C42.1638 14.6027 41.9988 14.6421 41.851 14.7131C41.5258 14.8695 41.2839 15.1775 41.2254 15.5546L39.7246 25.0604L39.6814 25.3377C39.7802 24.7121 40.3147 24.2515 40.949 24.2515H43.5898C48.7764 24.2515 52.8374 22.1451 54.0245 16.0517C54.06 15.8713 54.0898 15.6956 54.1166 15.5239C53.8163 15.3646 53.4909 15.2284 53.1407 15.1122C53.0543 15.0835 52.9651 15.0556 52.8749 15.0287Z" fill="#222D65"/>
<path d="M41.2256 15.5546C41.2841 15.1775 41.5259 14.8694 41.8512 14.714C41.9999 14.643 42.164 14.6037 42.3378 14.6037H49.3927C50.2285 14.6037 51.0086 14.6584 51.7207 14.7735C51.9241 14.8061 52.1217 14.8435 52.3147 14.8858C52.5066 14.9289 52.6937 14.9769 52.875 15.0297C52.9653 15.0566 53.0545 15.0844 53.1418 15.1123C53.4921 15.2284 53.8173 15.3656 54.1178 15.5239C54.4708 13.2718 54.1148 11.7383 52.8971 10.3498C51.5547 8.82113 49.1317 8.16669 46.0312 8.16669H37.0302C36.3969 8.16669 35.8566 8.6273 35.7587 9.25391L32.0096 33.0183C31.9357 33.4885 32.2984 33.9127 32.7725 33.9127H38.3295L39.7247 25.0604L41.2256 15.5546Z" fill="#253B80"/>
</svg>
