<svg width="121" height="40" viewBox="0 0 121 40" fill="none" xmlns="http://www.w3.org/2000/svg">
<rect width="121" height="40" rx="8" fill="black"/>
<path d="M35.667 12.1221C35.0615 12.1221 34.5195 11.9886 34.041 11.7217C33.5658 11.4515 33.1898 11.0576 32.9131 10.54C32.6396 10.0225 32.5029 9.39258 32.5029 8.65039C32.5029 7.91797 32.6429 7.28971 32.9229 6.76562C33.2028 6.23828 33.5837 5.83464 34.0654 5.55469C34.5472 5.27148 35.0876 5.12988 35.6865 5.12988C36.165 5.12988 36.5687 5.21777 36.8975 5.39355C37.2295 5.56608 37.4997 5.76139 37.708 5.97949L37.0977 6.6875C36.9284 6.52148 36.7347 6.38802 36.5166 6.28711C36.2985 6.18294 36.0332 6.13086 35.7207 6.13086C35.1087 6.13086 34.6172 6.35384 34.2461 6.7998C33.875 7.24251 33.6895 7.84798 33.6895 8.61621C33.6895 9.39746 33.8669 10.0111 34.2217 10.457C34.5765 10.903 35.0957 11.126 35.7793 11.126C35.9714 11.126 36.1569 11.0999 36.3359 11.0479C36.515 10.9958 36.6615 10.9193 36.7754 10.8184V9.31445H35.4766V8.37207H37.8057V11.3262C37.5811 11.554 37.2816 11.7445 36.9072 11.8975C36.5361 12.0472 36.1227 12.1221 35.667 12.1221ZM41.3604 12.1221C40.8981 12.1221 40.4798 12.0179 40.1055 11.8096C39.7311 11.598 39.4333 11.2952 39.2119 10.9014C38.9906 10.5075 38.8799 10.0322 38.8799 9.47559C38.8799 8.92871 38.9906 8.45671 39.2119 8.05957C39.4365 7.66243 39.7262 7.35645 40.0811 7.1416C40.4359 6.92676 40.8102 6.81934 41.2041 6.81934C41.8779 6.81934 42.3923 7.04232 42.7471 7.48828C43.1019 7.93099 43.2793 8.50879 43.2793 9.22168C43.2793 9.3291 43.2744 9.43327 43.2646 9.53418C43.2549 9.63509 43.2435 9.7181 43.2305 9.7832H39.9932C40.0387 10.2422 40.1982 10.6003 40.4717 10.8574C40.7451 11.1146 41.0902 11.2432 41.5068 11.2432C41.7314 11.2432 41.9414 11.2122 42.1367 11.1504C42.3353 11.0885 42.5273 11.0007 42.7129 10.8867L43.0889 11.5801C42.848 11.7493 42.5811 11.8828 42.2881 11.9805C41.9951 12.0749 41.6859 12.1221 41.3604 12.1221ZM39.9785 9.00684H42.293C42.293 8.59668 42.2035 8.27767 42.0244 8.0498C41.8454 7.81868 41.5801 7.70312 41.2285 7.70312C40.9225 7.70312 40.6507 7.81543 40.4131 8.04004C40.1755 8.26465 40.0306 8.58691 39.9785 9.00684ZM46.1846 12.1221C45.6051 12.1221 45.1966 11.9561 44.959 11.624C44.7246 11.292 44.6074 10.8558 44.6074 10.3154V7.85938H43.8848V6.99512L44.6709 6.94629L44.8027 5.35449H45.7451V6.94629H47.0488V7.85938H45.7451V10.3154C45.7451 10.9176 45.9876 11.2188 46.4727 11.2188C46.5573 11.2188 46.6436 11.2106 46.7314 11.1943C46.8226 11.1781 46.9121 11.152 47 11.1162L47.2148 11.917C47.0781 11.9691 46.9219 12.0163 46.7461 12.0586C46.5703 12.1009 46.3831 12.1221 46.1846 12.1221ZM51.3457 12V6.94629H52.4883V12H51.3457ZM51.9268 6.04297C51.7217 6.04297 51.5557 5.98275 51.4287 5.8623C51.3018 5.73861 51.2383 5.57585 51.2383 5.37402C51.2383 5.18197 51.3018 5.02572 51.4287 4.90527C51.5557 4.78483 51.7217 4.72461 51.9268 4.72461C52.1318 4.72461 52.2979 4.78483 52.4248 4.90527C52.5518 5.02572 52.6152 5.18197 52.6152 5.37402C52.6152 5.57585 52.5518 5.73861 52.4248 5.8623C52.2979 5.98275 52.1318 6.04297 51.9268 6.04297ZM55.7744 12.1221C55.195 12.1221 54.7865 11.9561 54.5488 11.624C54.3145 11.292 54.1973 10.8558 54.1973 10.3154V7.85938H53.4746V6.99512L54.2607 6.94629L54.3926 5.35449H55.335V6.94629H56.6387V7.85938H55.335V10.3154C55.335 10.9176 55.5775 11.2188 56.0625 11.2188C56.1471 11.2188 56.2334 11.2106 56.3213 11.1943C56.4124 11.1781 56.502 11.152 56.5898 11.1162L56.8047 11.917C56.668 11.9691 56.5117 12.0163 56.3359 12.0586C56.1602 12.1009 55.973 12.1221 55.7744 12.1221ZM62.9912 12.1221C62.5713 12.1221 62.179 12.0195 61.8145 11.8145C61.4531 11.6061 61.1602 11.305 60.9355 10.9111C60.7109 10.514 60.5986 10.0355 60.5986 9.47559C60.5986 8.91569 60.7109 8.4388 60.9355 8.04492C61.1602 7.64779 61.4531 7.34505 61.8145 7.13672C62.179 6.92513 62.5713 6.81934 62.9912 6.81934C63.4111 6.81934 63.8034 6.92513 64.168 7.13672C64.5326 7.34505 64.8271 7.64779 65.0518 8.04492C65.2764 8.4388 65.3887 8.91569 65.3887 9.47559C65.3887 10.0355 65.2764 10.514 65.0518 10.9111C64.8271 11.305 64.5326 11.6061 64.168 11.8145C63.8034 12.0195 63.4111 12.1221 62.9912 12.1221ZM62.9912 11.1992C63.3721 11.1992 63.6715 11.0413 63.8896 10.7256C64.111 10.4098 64.2217 9.99316 64.2217 9.47559C64.2217 8.95801 64.111 8.54134 63.8896 8.22559C63.6715 7.90983 63.3721 7.75195 62.9912 7.75195C62.6104 7.75195 62.3109 7.90983 62.0928 8.22559C61.8779 8.54134 61.7705 8.95801 61.7705 9.47559C61.7705 9.99316 61.8779 10.4098 62.0928 10.7256C62.3109 11.0413 62.6104 11.1992 62.9912 11.1992ZM66.5898 12V6.94629H67.5273L67.6201 7.62988H67.6445C67.8757 7.40853 68.1247 7.2181 68.3916 7.05859C68.6618 6.89909 68.9694 6.81934 69.3145 6.81934C69.8516 6.81934 70.2438 6.99512 70.4912 7.34668C70.7386 7.69499 70.8623 8.18815 70.8623 8.82617V12H69.7295V8.96777C69.7295 8.54785 69.6644 8.24837 69.5342 8.06934C69.4072 7.88704 69.2005 7.7959 68.9141 7.7959C68.6895 7.7959 68.4893 7.85286 68.3135 7.9668C68.141 8.08073 67.9473 8.24349 67.7324 8.45508V12H66.5898Z" fill="white"/>
<path d="M37.8672 32.1953C36.8984 32.1953 36.0312 31.9818 35.2656 31.5547C34.5052 31.1224 33.9036 30.4922 33.4609 29.6641C33.0234 28.8359 32.8047 27.8281 32.8047 26.6406C32.8047 25.4688 33.0286 24.4635 33.4766 23.625C33.9245 22.7812 34.5339 22.1354 35.3047 21.6875C36.0755 21.2344 36.9401 21.0078 37.8984 21.0078C38.6641 21.0078 39.3099 21.1484 39.8359 21.4297C40.3672 21.7057 40.7995 22.0182 41.1328 22.3672L40.1562 23.5C39.8854 23.2344 39.5755 23.0208 39.2266 22.8594C38.8776 22.6927 38.4531 22.6094 37.9531 22.6094C36.974 22.6094 36.1875 22.9661 35.5938 23.6797C35 24.388 34.7031 25.3568 34.7031 26.5859C34.7031 27.8359 34.987 28.8177 35.5547 29.5312C36.1224 30.2448 36.9531 30.6016 38.0469 30.6016C38.3542 30.6016 38.651 30.5599 38.9375 30.4766C39.224 30.3932 39.4583 30.2708 39.6406 30.1094V27.7031H37.5625V26.1953H41.2891V30.9219C40.9297 31.2865 40.4505 31.5911 39.8516 31.8359C39.2578 32.0755 38.5964 32.1953 37.8672 32.1953ZM46.8359 32.1953C46.1641 32.1953 45.5365 32.0312 44.9531 31.7031C44.375 31.3698 43.9062 30.888 43.5469 30.2578C43.1875 29.6224 43.0078 28.8568 43.0078 27.9609C43.0078 27.0651 43.1875 26.3021 43.5469 25.6719C43.9062 25.0365 44.375 24.5521 44.9531 24.2188C45.5365 23.8802 46.1641 23.7109 46.8359 23.7109C47.5078 23.7109 48.1354 23.8802 48.7188 24.2188C49.3021 24.5521 49.7734 25.0365 50.1328 25.6719C50.4922 26.3021 50.6719 27.0651 50.6719 27.9609C50.6719 28.8568 50.4922 29.6224 50.1328 30.2578C49.7734 30.888 49.3021 31.3698 48.7188 31.7031C48.1354 32.0312 47.5078 32.1953 46.8359 32.1953ZM46.8359 30.7188C47.4453 30.7188 47.9245 30.4661 48.2734 29.9609C48.6276 29.4557 48.8047 28.7891 48.8047 27.9609C48.8047 27.1328 48.6276 26.4661 48.2734 25.9609C47.9245 25.4557 47.4453 25.2031 46.8359 25.2031C46.2266 25.2031 45.7474 25.4557 45.3984 25.9609C45.0547 26.4661 44.8828 27.1328 44.8828 27.9609C44.8828 28.7891 45.0547 29.4557 45.3984 29.9609C45.7474 30.4661 46.2266 30.7188 46.8359 30.7188ZM55.8828 32.1953C55.2109 32.1953 54.5833 32.0312 54 31.7031C53.4219 31.3698 52.9531 30.888 52.5938 30.2578C52.2344 29.6224 52.0547 28.8568 52.0547 27.9609C52.0547 27.0651 52.2344 26.3021 52.5938 25.6719C52.9531 25.0365 53.4219 24.5521 54 24.2188C54.5833 23.8802 55.2109 23.7109 55.8828 23.7109C56.5547 23.7109 57.1823 23.8802 57.7656 24.2188C58.349 24.5521 58.8203 25.0365 59.1797 25.6719C59.5391 26.3021 59.7188 27.0651 59.7188 27.9609C59.7188 28.8568 59.5391 29.6224 59.1797 30.2578C58.8203 30.888 58.349 31.3698 57.7656 31.7031C57.1823 32.0312 56.5547 32.1953 55.8828 32.1953ZM55.8828 30.7188C56.4922 30.7188 56.9714 30.4661 57.3203 29.9609C57.6745 29.4557 57.8516 28.7891 57.8516 27.9609C57.8516 27.1328 57.6745 26.4661 57.3203 25.9609C56.9714 25.4557 56.4922 25.2031 55.8828 25.2031C55.2734 25.2031 54.7943 25.4557 54.4453 25.9609C54.1016 26.4661 53.9297 27.1328 53.9297 27.9609C53.9297 28.7891 54.1016 29.4557 54.4453 29.9609C54.7943 30.4661 55.2734 30.7188 55.8828 30.7188ZM64.4531 35.5859C63.8021 35.5859 63.224 35.5078 62.7188 35.3516C62.2135 35.2005 61.8151 34.9688 61.5234 34.6562C61.2318 34.3438 61.0859 33.9505 61.0859 33.4766C61.0859 33.1328 61.1875 32.8125 61.3906 32.5156C61.5938 32.224 61.8802 31.9661 62.25 31.7422V31.6719C62.0417 31.5417 61.8672 31.3672 61.7266 31.1484C61.5911 30.9297 61.5234 30.6562 61.5234 30.3281C61.5234 30.0104 61.6146 29.7214 61.7969 29.4609C61.9844 29.1953 62.1901 28.9818 62.4141 28.8203V28.75C62.138 28.5521 61.8932 28.2682 61.6797 27.8984C61.4661 27.5286 61.3594 27.1042 61.3594 26.625C61.3594 26.0104 61.5052 25.487 61.7969 25.0547C62.0938 24.6172 62.4818 24.2839 62.9609 24.0547C63.4401 23.8255 63.9635 23.7109 64.5312 23.7109C64.75 23.7109 64.9609 23.7318 65.1641 23.7734C65.3672 23.8099 65.5495 23.8568 65.7109 23.9141H68.6016V25.2656H67.1016C67.2318 25.4271 67.3438 25.6328 67.4375 25.8828C67.5365 26.1276 67.5859 26.3906 67.5859 26.6719C67.5859 27.2708 67.4479 27.776 67.1719 28.1875C66.901 28.599 66.5339 28.9115 66.0703 29.125C65.612 29.3333 65.099 29.4375 64.5312 29.4375C64.3542 29.4375 64.1693 29.4193 63.9766 29.3828C63.7891 29.3464 63.6042 29.2917 63.4219 29.2188C63.2917 29.3229 63.1901 29.4349 63.1172 29.5547C63.0443 29.6745 63.0078 29.8281 63.0078 30.0156C63.0078 30.25 63.1042 30.4349 63.2969 30.5703C63.4896 30.7005 63.8359 30.7656 64.3359 30.7656H65.7969C66.7552 30.7656 67.4844 30.9245 67.9844 31.2422C68.4844 31.5547 68.7344 32.0573 68.7344 32.75C68.7344 33.276 68.5573 33.7526 68.2031 34.1797C67.8542 34.612 67.3594 34.9531 66.7188 35.2031C66.0781 35.4583 65.3229 35.5859 64.4531 35.5859ZM64.5312 28.2891C64.9271 28.2891 65.2656 28.1432 65.5469 27.8516C65.8333 27.5599 65.9766 27.151 65.9766 26.625C65.9766 26.1042 65.8359 25.7005 65.5547 25.4141C65.2786 25.1224 64.9375 24.9766 64.5312 24.9766C64.1198 24.9766 63.776 25.1224 63.5 25.4141C63.224 25.7005 63.0859 26.1042 63.0859 26.625C63.0859 27.151 63.224 27.5599 63.5 27.8516C63.7812 28.1432 64.125 28.2891 64.5312 28.2891ZM64.7266 34.3984C65.3932 34.3984 65.9323 34.2604 66.3438 33.9844C66.7604 33.7135 66.9688 33.3984 66.9688 33.0391C66.9688 32.7161 66.8438 32.4974 66.5938 32.3828C66.349 32.2682 65.9922 32.2109 65.5234 32.2109H64.3672C63.9453 32.2109 63.5807 32.1719 63.2734 32.0938C63.0443 32.2604 62.8802 32.4375 62.7812 32.625C62.6823 32.8177 62.6328 33.0104 62.6328 33.2031C62.6328 33.5833 62.8177 33.8776 63.1875 34.0859C63.5573 34.2943 64.0703 34.3984 64.7266 34.3984ZM71.9609 32.1953C71.3151 32.1953 70.8542 32 70.5781 31.6094C70.3073 31.2135 70.1719 30.6719 70.1719 29.9844V20.3438H72V30.0781C72 30.3229 72.0417 30.4922 72.125 30.5859C72.2135 30.6745 72.3099 30.7188 72.4141 30.7188C72.4557 30.7188 72.4974 30.7188 72.5391 30.7188C72.5807 30.7135 72.6354 30.7031 72.7031 30.6875L72.9297 32.0312C72.8151 32.0781 72.6771 32.1172 72.5156 32.1484C72.3542 32.1797 72.1693 32.1953 71.9609 32.1953ZM78.0234 32.1953C77.2839 32.1953 76.6146 32.0286 76.0156 31.6953C75.4167 31.3568 74.9401 30.8724 74.5859 30.2422C74.2318 29.612 74.0547 28.8516 74.0547 27.9609C74.0547 27.0859 74.2318 26.3307 74.5859 25.6953C74.9453 25.0599 75.4089 24.5703 75.9766 24.2266C76.5443 23.8828 77.1432 23.7109 77.7734 23.7109C78.8516 23.7109 79.6745 24.0677 80.2422 24.7812C80.8099 25.4896 81.0938 26.4141 81.0938 27.5547C81.0938 27.7266 81.0859 27.8932 81.0703 28.0547C81.0547 28.2161 81.0365 28.349 81.0156 28.4531H75.8359C75.9089 29.1875 76.1641 29.7604 76.6016 30.1719C77.0391 30.5833 77.5911 30.7891 78.2578 30.7891C78.6172 30.7891 78.9531 30.7396 79.2656 30.6406C79.5833 30.5417 79.8906 30.401 80.1875 30.2188L80.7891 31.3281C80.4036 31.599 79.9766 31.8125 79.5078 31.9688C79.0391 32.1198 78.5443 32.1953 78.0234 32.1953ZM75.8125 27.2109H79.5156C79.5156 26.5547 79.3724 26.0443 79.0859 25.6797C78.7995 25.3099 78.375 25.125 77.8125 25.125C77.3229 25.125 76.888 25.3047 76.5078 25.6641C76.1276 26.0234 75.8958 26.5391 75.8125 27.2109ZM88.2578 32V21.2109H91.6172C92.4141 21.2109 93.1224 21.3151 93.7422 21.5234C94.3672 21.7266 94.8594 22.0703 95.2188 22.5547C95.5781 23.0339 95.7578 23.6875 95.7578 24.5156C95.7578 25.3125 95.5781 25.9688 95.2188 26.4844C94.8646 26.9948 94.3802 27.3724 93.7656 27.6172C93.151 27.862 92.4557 27.9844 91.6797 27.9844H90.0938V32H88.2578ZM90.0938 26.5156H91.5156C93.1458 26.5156 93.9609 25.849 93.9609 24.5156C93.9609 23.8333 93.7474 23.3594 93.3203 23.0938C92.8984 22.8229 92.276 22.6875 91.4531 22.6875H90.0938V26.5156ZM99.4453 32.1953C98.7995 32.1953 98.3385 32 98.0625 31.6094C97.7917 31.2135 97.6562 30.6719 97.6562 29.9844V20.3438H99.4844V30.0781C99.4844 30.3229 99.526 30.4922 99.6094 30.5859C99.6979 30.6745 99.7943 30.7188 99.8984 30.7188C99.9401 30.7188 99.9818 30.7188 100.023 30.7188C100.065 30.7135 100.12 30.7031 100.188 30.6875L100.414 32.0312C100.299 32.0781 100.161 32.1172 100 32.1484C99.8385 32.1797 99.6536 32.1953 99.4453 32.1953ZM104.031 32.1953C103.328 32.1953 102.753 31.9818 102.305 31.5547C101.862 31.1224 101.641 30.5521 101.641 29.8438C101.641 28.974 102.021 28.3021 102.781 27.8281C103.542 27.349 104.758 27.0182 106.43 26.8359C106.419 26.3932 106.307 26.0078 106.094 25.6797C105.88 25.3464 105.492 25.1797 104.93 25.1797C104.518 25.1797 104.12 25.2578 103.734 25.4141C103.349 25.5651 102.982 25.7474 102.633 25.9609L101.961 24.7734C102.393 24.4922 102.891 24.2448 103.453 24.0312C104.016 23.8177 104.62 23.7109 105.266 23.7109C106.271 23.7109 107.018 24.013 107.508 24.6172C108.003 25.2214 108.25 26.0807 108.25 27.1953V32H106.75L106.617 31.0938H106.562C106.198 31.4062 105.805 31.6693 105.383 31.8828C104.961 32.0911 104.51 32.1953 104.031 32.1953ZM104.609 30.7656C104.943 30.7656 105.25 30.6901 105.531 30.5391C105.818 30.3828 106.117 30.1589 106.43 29.8672V27.9766C105.289 28.1276 104.497 28.3464 104.055 28.6328C103.617 28.9193 103.398 29.2734 103.398 29.6953C103.398 30.0703 103.51 30.3438 103.734 30.5156C103.964 30.6823 104.255 30.7656 104.609 30.7656ZM111.047 35.3438C110.833 35.3438 110.643 35.3281 110.477 35.2969C110.31 35.2656 110.154 35.2188 110.008 35.1562L110.359 33.7734C110.583 33.8411 110.771 33.875 110.922 33.875C111.354 33.875 111.701 33.7396 111.961 33.4688C112.227 33.1979 112.43 32.8516 112.57 32.4297L112.742 31.9141L109.539 23.9141H111.391L112.82 27.9531C112.94 28.3125 113.06 28.6875 113.18 29.0781C113.299 29.4688 113.422 29.8568 113.547 30.2422H113.617C113.716 29.8672 113.818 29.487 113.922 29.1016C114.026 28.7109 114.13 28.3281 114.234 27.9531L115.484 23.9141H117.242L114.297 32.4062C113.969 33.3021 113.562 34.0156 113.078 34.5469C112.594 35.0781 111.917 35.3438 111.047 35.3438Z" fill="white"/>
<path d="M7.82304 6.85901L18.961 18L7.82424 29.1414C7.61308 29.0521 7.42813 28.8959 7.30441 28.6823C7.208 28.5157 7.15723 28.3267 7.15723 28.1342V7.86588C7.15723 7.41368 7.43165 7.02558 7.82304 6.85901ZM19.7343 18.7733L22.2521 21.2911L10.2897 28.2178L19.7343 18.7733ZM23.2332 15.2754L26.3035 17.0536C26.8263 17.3562 27.0048 18.0254 26.702 18.5481C26.6063 18.7134 26.4689 18.8509 26.3035 18.9466L23.2321 20.7245L20.5076 18L23.2332 15.2754ZM10.2897 7.78213L22.2532 14.7078L19.7343 17.2267L10.2897 7.78213Z" fill="white"/>
</svg>
