<svg width="20" height="20" viewBox="0 0 20 20" fill="none" xmlns="http://www.w3.org/2000/svg">
<path d="M7.36794 17.5C5.34609 17.5 3.46136 16.9119 1.875 15.8973C3.22187 15.9844 5.59879 15.7757 7.07725 14.3655C4.85317 14.2634 3.85016 12.5577 3.71934 11.8288C3.90831 11.9016 4.80956 11.9891 5.31834 11.785C2.75994 11.1435 2.36746 8.89831 2.45467 8.21312C2.93438 8.54844 3.74841 8.66506 4.06821 8.63587C1.68424 6.93012 2.54189 4.36423 2.96344 3.81022C4.67426 6.18042 7.23825 7.51163 10.4103 7.58563C10.3504 7.32338 10.3189 7.05025 10.3189 6.76975C10.3189 4.75683 11.9459 3.125 13.9529 3.125C15.0016 3.125 15.9465 3.57047 16.6098 4.28303C17.3106 4.11882 18.3652 3.73442 18.8808 3.402C18.6209 4.33507 17.8118 5.11343 17.3224 5.40192C17.3184 5.39207 17.3265 5.41174 17.3224 5.40192C17.7523 5.3369 18.9155 5.11336 19.375 4.8016C19.1478 5.32578 18.29 6.19733 17.5861 6.68525C17.7171 12.4613 13.2978 17.5 7.36794 17.5Z" fill="white"/>
</svg>
