<svg width="183" height="48" viewBox="0 0 183 48" fill="none" xmlns="http://www.w3.org/2000/svg">
<rect x="0.5" y="0.5" width="182" height="47" rx="23.5" fill="white"/>
<rect x="0.5" y="0.5" width="182" height="47" rx="23.5" stroke="#898989"/>
<g clip-path="url(#clip0_476_357)">
<mask id="mask0_476_357" style="mask-type:luminance" maskUnits="userSpaceOnUse" x="72" y="4" width="40" height="40">
<path d="M112 4H72V44H112V4Z" fill="white"/>
</mask>
<g mask="url(#mask0_476_357)">
<path d="M91.9994 4.03986C80.9527 4.03986 72 12.8768 72 23.7766C72 34.6756 80.9527 43.5136 91.9994 43.5136C103.043 43.5136 112 34.6756 112 23.7766C112 12.8768 103.043 4.03986 91.9994 4.03986Z" fill="#13B5EA"/>
<path d="M86.6607 22.9491C87.0196 21.5471 88.2849 20.5685 89.7385 20.5685C91.1996 20.5685 92.4589 21.5446 92.8194 22.9491H86.6607ZM93.9374 23.801C94.1435 23.548 94.221 23.2172 94.1552 22.8685C93.8872 21.6046 93.1979 20.5924 92.162 19.941C91.4504 19.4904 90.6201 19.2524 89.7604 19.2524C88.8121 19.2524 87.9092 19.5366 87.1492 20.0745C85.9614 20.9157 85.2524 22.2898 85.2524 23.7505C85.2524 24.1172 85.298 24.4812 85.3876 24.8323C85.8442 26.611 87.3794 27.9563 89.208 28.1799C89.3849 28.2009 89.5619 28.2116 89.7342 28.2116C90.1005 28.2116 90.457 28.1651 90.8233 28.0702C91.2996 27.9562 91.7533 27.764 92.1724 27.4995C92.5682 27.244 92.9328 26.8998 93.3162 26.4197L93.3413 26.3938C93.4689 26.235 93.5284 26.031 93.5041 25.8342C93.4823 25.658 93.3977 25.506 93.2659 25.4061C93.1409 25.3102 92.9919 25.2574 92.8468 25.2574C92.7051 25.2574 92.4972 25.3085 92.309 25.5526L92.2943 25.5721C92.2322 25.6547 92.1679 25.74 92.094 25.8246C91.8405 26.1081 91.5493 26.3416 91.2289 26.5185C90.7701 26.7622 90.2744 26.8875 89.7569 26.8912C88.1309 26.8735 87.135 25.7957 86.7459 24.7946C86.6849 24.6144 86.6412 24.4499 86.6132 24.2974C86.6127 24.2819 86.6115 24.2656 86.6105 24.2498L92.906 24.2486C93.3434 24.2394 93.7097 24.0804 93.9374 23.801Z" fill="white"/>
<path d="M103.112 22.5341C102.48 22.5341 101.965 23.0449 101.965 23.6727C101.965 24.3007 102.48 24.8117 103.112 24.8117C103.743 24.8117 104.256 24.3007 104.256 23.6727C104.256 23.0449 103.743 22.5341 103.112 22.5341Z" fill="white"/>
<path d="M98.9355 19.967C98.9355 19.6095 98.642 19.3185 98.282 19.3185L98.098 19.3158C97.5396 19.3158 97.0116 19.4863 96.5667 19.8095C96.4816 19.5478 96.2325 19.3638 95.9515 19.3638C95.5894 19.3638 95.3041 19.6465 95.3019 20.0075L95.304 27.4794C95.3064 27.8353 95.5973 28.1249 95.9526 28.1249C96.3101 28.1249 96.6012 27.8352 96.6012 27.479V22.8839C96.6012 21.395 96.73 20.7727 98.0253 20.6132C98.1328 20.6005 98.2481 20.5997 98.2774 20.5997C98.6587 20.586 98.9355 20.3199 98.9355 19.967Z" fill="white"/>
<path d="M81.851 23.7209L85.2106 20.3647C85.3335 20.2447 85.4012 20.0832 85.4012 19.9103C85.4012 19.5533 85.1082 19.2628 84.7482 19.2628C84.574 19.2628 84.4095 19.3316 84.2855 19.4561L80.9257 22.7953L77.5524 19.4499C77.4295 19.3293 77.2665 19.2628 77.0933 19.2628C76.735 19.2628 76.4436 19.5533 76.4436 19.9103C76.4436 20.0837 76.5131 20.2481 76.6394 20.3732L80.0015 23.7182L76.6445 27.0676C76.515 27.1907 76.4436 27.3559 76.4436 27.5327C76.4436 27.8896 76.735 28.1801 77.0933 28.1801C77.2638 28.1801 77.4268 28.114 77.5527 27.9933L80.9224 24.6407L84.2775 27.9776C84.4061 28.1092 84.5732 28.1817 84.7482 28.1817C85.1082 28.1817 85.4012 27.8906 85.4012 27.5327C85.4012 27.3618 85.3335 27.1998 85.2109 27.0764L81.851 23.7209Z" fill="white"/>
<path d="M103.111 26.8043C101.375 26.8043 99.9634 25.3996 99.9634 23.6727C99.9634 21.9441 101.375 20.5376 103.111 20.5376C104.845 20.5376 106.255 21.9441 106.255 23.6727C106.255 25.3996 104.845 26.8043 103.111 26.8043ZM103.112 19.2031C100.636 19.2031 98.6219 21.2081 98.6219 23.6726C98.6219 26.1364 100.636 28.1409 103.112 28.1409C105.586 28.1409 107.599 26.1364 107.599 23.6726C107.599 21.2081 105.586 19.2031 103.112 19.2031Z" fill="white"/>
</g>
</g>
<defs>
<clipPath id="clip0_476_357">
<rect width="40" height="40" fill="white" transform="translate(72 4)"/>
</clipPath>
</defs>
</svg>
